%
M48
M72
T01C0.0320
T02C0.0400
%
T01
X7100Y20600
X7100Y22600
X9100Y22600
X9100Y20600
X11100Y20600
X11100Y22600
X13100Y22600
X13100Y20600
T02
X2600Y2600
X2600Y3600
X3600Y3600
X3600Y2600
X3600Y4600
X3600Y5600
X3600Y6600
X3600Y7600
X3600Y8600
X3600Y9600
X3600Y10600
X3600Y11600
X2600Y11600
X2600Y10600
X2600Y9600
X2600Y8600
X2600Y7600
X2600Y6600
X2600Y5600
X2600Y4600
X7100Y4600
X7100Y5600
X7100Y6600
X7100Y7600
X8100Y7600
X8100Y6600
X8100Y5600
X8100Y4600
X8100Y3600
X8100Y2600
X7100Y2600
X7100Y3600
X11600Y3600
X11600Y2600
X12600Y2600
X12600Y3600
X12600Y4600
X12600Y5600
X12600Y6600
X12600Y7600
X11600Y7600
X11600Y6600
X11600Y5600
X11600Y4600
X16100Y4600
X16100Y5600
X16100Y6600
X16100Y7600
X17100Y7600
X17100Y6600
X17100Y5600
X17100Y4600
X17100Y3600
X17100Y2600
X16100Y2600
X16100Y3600
X20600Y3600
X20600Y2600
X21600Y2600
X21600Y3600
X21600Y4600
X21600Y5600
X21600Y6600
X21600Y7600
X20600Y7600
X20600Y6600
X20600Y5600
X20600Y4600
X20600Y12600
X20600Y13600
X20600Y14600
X20600Y15600
X20600Y16600
X20600Y17600
X21600Y17600
X21600Y16600
X21600Y15600
X21600Y14600
X21600Y13600
X21600Y12600
X17100Y12600
X17100Y13600
X17100Y14600
X17100Y15600
X17100Y16600
X17100Y17600
X16100Y17600
X16100Y16600
X16100Y15600
X16100Y14600
X16100Y13600
X16100Y12600
X12600Y12600
X12600Y13600
X12600Y14600
X12600Y15600
X12600Y16600
X12600Y17600
X11600Y17600
X11600Y16600
X11600Y15600
X11600Y14600
X11600Y13600
X11600Y12600
X8100Y12600
X8100Y13600
X8100Y14600
X8100Y15600
X8100Y16600
X8100Y17600
X7100Y17600
X7100Y16600
X7100Y15600
X7100Y14600
X7100Y13600
X7100Y12600
X3600Y12600
X3600Y13600
X3600Y14600
X3600Y15600
X3600Y16600
X3600Y17600
X3600Y18600
X2600Y18600
X2600Y17600
X2600Y16600
X2600Y15600
X2600Y14600
X2600Y13600
X2600Y12600
X2600Y19600
X2600Y20600
X2600Y21600
X3600Y21600
X3600Y20600
X3600Y19600
X17600Y21100
X18600Y21100
X19600Y21100
X20600Y21100
M30
