G75*
%MOIN*%
%OFA0B0*%
%FSLAX25Y25*%
%IPPOS*%
%LPD*%
%AMOC8*
5,1,8,0,0,1.08239X$1,22.5*
%
%ADD10OC8,0.06000*%
%ADD11C,0.06000*%
%ADD12OC8,0.04800*%
%ADD13C,0.01600*%
%ADD14C,0.01000*%
D10*
X0026000Y0026000D03*
X0026000Y0036000D03*
X0036000Y0036000D03*
X0036000Y0026000D03*
X0036000Y0046000D03*
X0036000Y0056000D03*
X0036000Y0066000D03*
X0036000Y0076000D03*
X0036000Y0086000D03*
X0036000Y0096000D03*
X0036000Y0106000D03*
X0036000Y0116000D03*
X0026000Y0116000D03*
X0026000Y0106000D03*
X0026000Y0096000D03*
X0026000Y0086000D03*
X0026000Y0076000D03*
X0026000Y0066000D03*
X0026000Y0056000D03*
X0026000Y0046000D03*
X0071000Y0046000D03*
X0071000Y0056000D03*
X0071000Y0066000D03*
X0071000Y0076000D03*
X0081000Y0076000D03*
X0081000Y0066000D03*
X0081000Y0056000D03*
X0081000Y0046000D03*
X0081000Y0036000D03*
X0081000Y0026000D03*
X0071000Y0026000D03*
X0071000Y0036000D03*
X0116000Y0036000D03*
X0116000Y0026000D03*
X0126000Y0026000D03*
X0126000Y0036000D03*
X0126000Y0046000D03*
X0126000Y0056000D03*
X0126000Y0066000D03*
X0126000Y0076000D03*
X0116000Y0076000D03*
X0116000Y0066000D03*
X0116000Y0056000D03*
X0116000Y0046000D03*
X0161000Y0046000D03*
X0161000Y0056000D03*
X0161000Y0066000D03*
X0161000Y0076000D03*
X0171000Y0076000D03*
X0171000Y0066000D03*
X0171000Y0056000D03*
X0171000Y0046000D03*
X0171000Y0036000D03*
X0171000Y0026000D03*
X0161000Y0026000D03*
X0161000Y0036000D03*
X0206000Y0036000D03*
X0206000Y0026000D03*
X0216000Y0026000D03*
X0216000Y0036000D03*
X0216000Y0046000D03*
X0216000Y0056000D03*
X0216000Y0066000D03*
X0216000Y0076000D03*
X0206000Y0076000D03*
X0206000Y0066000D03*
X0206000Y0056000D03*
X0206000Y0046000D03*
X0206000Y0126000D03*
X0206000Y0136000D03*
X0206000Y0146000D03*
X0206000Y0156000D03*
X0206000Y0166000D03*
X0206000Y0176000D03*
X0216000Y0176000D03*
X0216000Y0166000D03*
X0216000Y0156000D03*
X0216000Y0146000D03*
X0216000Y0136000D03*
X0216000Y0126000D03*
X0171000Y0126000D03*
X0171000Y0136000D03*
X0171000Y0146000D03*
X0171000Y0156000D03*
X0171000Y0166000D03*
X0171000Y0176000D03*
X0161000Y0176000D03*
X0161000Y0166000D03*
X0161000Y0156000D03*
X0161000Y0146000D03*
X0161000Y0136000D03*
X0161000Y0126000D03*
X0126000Y0126000D03*
X0126000Y0136000D03*
X0126000Y0146000D03*
X0126000Y0156000D03*
X0126000Y0166000D03*
X0126000Y0176000D03*
X0116000Y0176000D03*
X0116000Y0166000D03*
X0116000Y0156000D03*
X0116000Y0146000D03*
X0116000Y0136000D03*
X0116000Y0126000D03*
X0081000Y0126000D03*
X0081000Y0136000D03*
X0081000Y0146000D03*
X0081000Y0156000D03*
X0081000Y0166000D03*
X0081000Y0176000D03*
X0071000Y0176000D03*
X0071000Y0166000D03*
X0071000Y0156000D03*
X0071000Y0146000D03*
X0071000Y0136000D03*
X0071000Y0126000D03*
X0036000Y0126000D03*
X0036000Y0136000D03*
X0036000Y0146000D03*
X0036000Y0156000D03*
X0036000Y0166000D03*
X0036000Y0176000D03*
X0036000Y0186000D03*
X0026000Y0186000D03*
X0026000Y0176000D03*
X0026000Y0166000D03*
X0026000Y0156000D03*
X0026000Y0146000D03*
X0026000Y0136000D03*
X0026000Y0126000D03*
X0026000Y0196000D03*
X0026000Y0206000D03*
X0026000Y0216000D03*
X0036000Y0216000D03*
X0036000Y0206000D03*
X0036000Y0196000D03*
D11*
X0176000Y0208000D02*
X0176000Y0214000D01*
X0186000Y0214000D02*
X0186000Y0208000D01*
X0196000Y0208000D02*
X0196000Y0214000D01*
X0206000Y0214000D02*
X0206000Y0208000D01*
D12*
X0131000Y0206000D03*
X0131000Y0226000D03*
X0111000Y0226000D03*
X0111000Y0206000D03*
X0091000Y0206000D03*
X0091000Y0226000D03*
X0071000Y0226000D03*
X0071000Y0206000D03*
D13*
X0071000Y0176000D01*
X0081000Y0186000D01*
X0086000Y0186000D01*
X0091000Y0181000D01*
X0091000Y0091000D01*
X0086000Y0086000D01*
X0081000Y0086000D01*
X0071000Y0076000D01*
X0106000Y0086000D02*
X0116000Y0076000D01*
X0106000Y0086000D02*
X0106000Y0171000D01*
X0111000Y0176000D01*
X0116000Y0176000D01*
X0116000Y0186000D01*
X0111000Y0191000D01*
X0106000Y0191000D01*
X0091000Y0206000D01*
X0086000Y0213500D02*
X0071000Y0226000D01*
X0086000Y0213500D02*
X0173000Y0213500D01*
X0176000Y0211000D01*
X0169500Y0217000D02*
X0101000Y0217000D01*
X0091000Y0226000D01*
X0111000Y0226000D02*
X0116500Y0220500D01*
X0167500Y0220500D01*
X0170000Y0223000D01*
X0184500Y0223000D01*
X0196000Y0211000D01*
X0206000Y0211000D02*
X0192000Y0226000D01*
X0131000Y0226000D01*
X0131000Y0206000D02*
X0136000Y0201000D01*
X0191000Y0201000D01*
X0206000Y0186000D01*
X0206000Y0176000D01*
X0201000Y0176000D01*
X0196000Y0171000D01*
X0196000Y0086000D01*
X0206000Y0076000D01*
X0181000Y0091000D02*
X0176000Y0086000D01*
X0171000Y0086000D01*
X0161000Y0076000D01*
X0181000Y0091000D02*
X0181000Y0181000D01*
X0176000Y0186000D01*
X0171000Y0186000D01*
X0161000Y0176000D01*
X0161000Y0186000D01*
X0151000Y0196000D01*
X0121000Y0196000D01*
X0111000Y0206000D01*
X0169500Y0217000D02*
X0172000Y0219500D01*
X0177500Y0219500D01*
X0186000Y0211000D01*
D14*
X0171000Y0166000D02*
X0166000Y0161000D01*
X0136000Y0161000D01*
X0131000Y0166000D01*
X0126000Y0166000D01*
X0121000Y0161000D02*
X0131000Y0161000D01*
X0136000Y0156000D01*
X0161000Y0156000D01*
X0166000Y0151000D02*
X0171000Y0156000D01*
X0166000Y0151000D02*
X0136000Y0151000D01*
X0131000Y0156000D01*
X0126000Y0156000D01*
X0121000Y0151000D02*
X0131000Y0151000D01*
X0136000Y0146000D01*
X0161000Y0146000D01*
X0166000Y0141000D02*
X0171000Y0146000D01*
X0166000Y0141000D02*
X0136000Y0141000D01*
X0131000Y0146000D01*
X0126000Y0146000D01*
X0121000Y0141000D02*
X0131000Y0141000D01*
X0136000Y0136000D01*
X0161000Y0136000D01*
X0166000Y0131000D02*
X0171000Y0136000D01*
X0166000Y0131000D02*
X0136000Y0131000D01*
X0131000Y0136000D01*
X0126000Y0136000D01*
X0121000Y0131000D02*
X0131000Y0131000D01*
X0136000Y0126000D01*
X0161000Y0126000D01*
X0166000Y0121000D02*
X0171000Y0126000D01*
X0166000Y0121000D02*
X0131000Y0121000D01*
X0126000Y0126000D01*
X0121000Y0131000D02*
X0116000Y0126000D01*
X0116000Y0136000D02*
X0121000Y0141000D01*
X0116000Y0146000D02*
X0121000Y0151000D01*
X0116000Y0156000D02*
X0121000Y0161000D01*
X0116000Y0166000D02*
X0121000Y0171000D01*
X0131000Y0171000D01*
X0136000Y0166000D01*
X0161000Y0166000D01*
X0081000Y0166000D02*
X0076000Y0161000D01*
X0061000Y0161000D01*
X0056000Y0166000D01*
X0056000Y0186000D01*
X0036000Y0206000D01*
X0036000Y0196000D02*
X0051000Y0181000D01*
X0051000Y0166000D01*
X0061000Y0156000D01*
X0071000Y0156000D01*
X0076000Y0151000D02*
X0081000Y0156000D01*
X0076000Y0151000D02*
X0061000Y0151000D01*
X0046000Y0166000D01*
X0046000Y0176000D01*
X0036000Y0186000D01*
X0036000Y0176000D02*
X0041000Y0171000D01*
X0041000Y0166000D01*
X0051000Y0156000D01*
X0051000Y0151000D01*
X0056000Y0146000D01*
X0071000Y0146000D01*
X0076000Y0141000D02*
X0081000Y0146000D01*
X0076000Y0141000D02*
X0056000Y0141000D01*
X0046000Y0151000D01*
X0046000Y0156000D01*
X0036000Y0166000D01*
X0036000Y0156000D02*
X0046000Y0146000D01*
X0046000Y0141000D01*
X0051000Y0136000D01*
X0071000Y0136000D01*
X0076000Y0131000D02*
X0081000Y0136000D01*
X0076000Y0131000D02*
X0046000Y0131000D01*
X0041000Y0136000D01*
X0041000Y0141000D01*
X0036000Y0146000D01*
X0036000Y0136000D02*
X0046000Y0126000D01*
X0071000Y0126000D01*
X0076000Y0121000D02*
X0081000Y0126000D01*
X0076000Y0121000D02*
X0041000Y0121000D01*
X0036000Y0126000D01*
X0036000Y0116000D02*
X0061000Y0091000D01*
X0061000Y0071000D01*
X0066000Y0066000D01*
X0071000Y0066000D01*
X0076000Y0061000D02*
X0081000Y0066000D01*
X0076000Y0061000D02*
X0061000Y0061000D01*
X0056000Y0066000D01*
X0056000Y0086000D01*
X0036000Y0106000D01*
X0036000Y0096000D02*
X0051000Y0081000D01*
X0051000Y0066000D01*
X0061000Y0056000D01*
X0071000Y0056000D01*
X0076000Y0051000D02*
X0081000Y0056000D01*
X0076000Y0051000D02*
X0061000Y0051000D01*
X0046000Y0066000D01*
X0046000Y0076000D01*
X0036000Y0086000D01*
X0036000Y0076000D02*
X0041000Y0071000D01*
X0041000Y0066000D01*
X0051000Y0056000D01*
X0051000Y0051000D01*
X0056000Y0046000D01*
X0071000Y0046000D01*
X0076000Y0041000D02*
X0081000Y0046000D01*
X0076000Y0041000D02*
X0056000Y0041000D01*
X0046000Y0051000D01*
X0046000Y0056000D01*
X0036000Y0066000D01*
X0036000Y0056000D02*
X0046000Y0046000D01*
X0046000Y0041000D01*
X0051000Y0036000D01*
X0071000Y0036000D01*
X0076000Y0031000D02*
X0081000Y0036000D01*
X0076000Y0031000D02*
X0046000Y0031000D01*
X0041000Y0036000D01*
X0041000Y0041000D01*
X0036000Y0046000D01*
X0036000Y0036000D02*
X0046000Y0026000D01*
X0071000Y0026000D01*
X0076000Y0021000D02*
X0081000Y0026000D01*
X0076000Y0021000D02*
X0041000Y0021000D01*
X0036000Y0026000D01*
X0116000Y0026000D02*
X0121000Y0031000D01*
X0131000Y0031000D01*
X0136000Y0026000D01*
X0161000Y0026000D01*
X0166000Y0021000D02*
X0171000Y0026000D01*
X0166000Y0021000D02*
X0131000Y0021000D01*
X0126000Y0026000D01*
X0126000Y0036000D02*
X0131000Y0036000D01*
X0136000Y0031000D01*
X0166000Y0031000D01*
X0171000Y0036000D01*
X0166000Y0041000D02*
X0171000Y0046000D01*
X0166000Y0051000D02*
X0171000Y0056000D01*
X0166000Y0051000D02*
X0136000Y0051000D01*
X0131000Y0056000D01*
X0126000Y0056000D01*
X0121000Y0051000D02*
X0131000Y0051000D01*
X0136000Y0046000D01*
X0161000Y0046000D01*
X0166000Y0041000D02*
X0136000Y0041000D01*
X0131000Y0046000D01*
X0126000Y0046000D01*
X0121000Y0051000D02*
X0116000Y0046000D01*
X0121000Y0041000D02*
X0131000Y0041000D01*
X0136000Y0036000D01*
X0161000Y0036000D01*
X0161000Y0056000D02*
X0136000Y0056000D01*
X0131000Y0061000D01*
X0121000Y0061000D01*
X0116000Y0056000D01*
X0116000Y0066000D02*
X0121000Y0071000D01*
X0131000Y0071000D01*
X0136000Y0066000D01*
X0161000Y0066000D01*
X0166000Y0061000D02*
X0171000Y0066000D01*
X0166000Y0061000D02*
X0136000Y0061000D01*
X0131000Y0066000D01*
X0126000Y0066000D01*
X0121000Y0041000D02*
X0116000Y0036000D01*
X0071000Y0166000D02*
X0066000Y0166000D01*
X0061000Y0171000D01*
X0061000Y0191000D01*
X0036000Y0216000D01*
M02*
